<svg width="40" height="40" viewBox="0 0 40 40" fill="none" xmlns="http://www.w3.org/2000/svg">
  <!-- กลีบดอกไม้ชั้นนอก -->
  <path d="M20 5C15.5817 5 12 8.58172 12 13C12 17.4183 15.5817 21 20 21C24.4183 21 28 17.4183 28 13C28 8.58172 24.4183 5 20 5Z" fill="currentColor" opacity="0.9"/>
  <path d="M12 13C12 15.7614 14.2386 18 17 18C19.6569 18 21 16.6569 21 15C21 13.3431 19.6569 12 18 12C16.3431 12 15 13.3431 15 15C15 16.6569 16.3431 18 18 18C20.7614 18 23 15.7614 23 13C23 10.2386 20.7614 7 18 7C15.2386 7 13 9.23858 13 12Z" fill="currentColor" opacity="0.7"/>
  <path d="M8 13C8 15.7614 10.2386 18 13 18C14.6569 18 16 16.6569 16 15C16 13.3431 14.6569 12 13 12C11.3431 12 10 13.3431 10 15C10 16.6569 11.3431 18 13 18C15.7614 18 18 15.7614 18 13C18 10.2386 15.7614 7 13 7C10.2386 7 8 9.23858 8 12Z" fill="currentColor" opacity="0.5"/>
  <path d="M32 13C32 15.7614 34.2386 18 37 18C38.6569 18 40 16.6569 40 15C40 13.3431 38.6569 12 37 12C35.3431 12 34 13.3431 34 15C34 16.6569 35.3431 18 37 18C39.7614 18 42 15.7614 42 13C42 10.2386 39.7614 7 37 7C34.2386 7 32 9.23858 32 12Z" fill="currentColor" opacity="0.5"/>
  <!-- ก้านดอกไม้ -->
  <path d="M20 25C20 25 22 27 25 28C26 28.3333 27 28.6667 28 29C28.6667 29.3333 29 29.6667 29 30C29 30.6667 28.6667 31.3333 28 32C27.3333 32.6667 26.6667 33.3333 26 34C25.3333 34.6667 24.6667 35.3333 24 36C23.3333 36.6667 22.6667 37.3333 22 38C21.3333 38.6667 20.6667 39.3333 20 40" stroke="currentColor" stroke-width="2" stroke-linecap="round"/>
</svg>
