<svg width="40" height="40" viewBox="0 0 40 40" fill="none" xmlns="http://www.w3.org/2000/svg">
  <!-- หลอดไฟ -->
  <circle cx="20" cy="15" r="10" fill="currentColor" opacity="0.9"/>
  <!-- ฐานหลอด -->
  <rect x="15" y="25" width="10" height="8" fill="currentColor" opacity="0.8"/>
  <rect x="17" y="33" width="6" height="3" fill="currentColor" opacity="0.7"/>
  <!-- เส้นแส -->
  <path d="M20 5C20 5 20 8 20 8M20 5C20 5 23 8 23 8M20 5C20 5 17 8 17 8" stroke="currentColor" stroke-width="1" opacity="0.6"/>
  <path d="M20 5C20 5 20 8 20 8M20 5C20 5 23 8 23 8M20 5C20 5 17 8 17 8" stroke="currentColor" stroke-width="1" opacity="0.6"/>
  <path d="M20 5C20 5 20 8 20 8M20 5C20 5 23 8 23 8M20 5C20 5 17 8 17 8" stroke="currentColor" stroke-width="1" opacity="0.6"/>
</svg>
