<svg width="40" height="40" viewBox="0 0 40 40" fill="none" xmlns="http://www.w3.org/2000/svg">
  <!-- ดวาวตัวหลัก -->
  <path d="M20 8C20 8 20 12 20 12C20 12 24 12 24 12C24 12 24 16 24 16C24 16 20 16 20 16C20 16 20 20 20 20C20 20 20 16 20 16C20 16 16 16 16 16C16 16 16 12 16 12C16 12 20 12 20 12C20 12 20 8 20 8Z" fill="currentColor" opacity="0.9"/>
  <!-- ดวาวเล็กๆ -->
  <path d="M12 6C12 6 12 8 12 8C12 8 14 8 14 8C14 8 14 10 14 10C14 10 12 10 12 10C12 10 12 12 12 12C12 12 12 10 12 10C12 10 10 10 10 10C10 10 10 8 10 8C10 8 12 8 12 8C12 8 12 6 12 6Z" fill="currentColor" opacity="0.7"/>
  <path d="M28 6C28 6 28 8 28 8C28 8 30 8 30 8C30 8 30 10 30 10C30 10 28 10 28 10C28 10 28 12 28 12C28 12 28 10 28 10C28 10 26 10 26 10C26 10 26 8 26 8C26 8 28 8 28 8C28 8 28 6 28 6Z" fill="currentColor" opacity="0.7"/>
  <path d="M8 20C8 20 8 22 8 22C8 22 10 22 10 22C10 22 10 24 10 24C10 24 8 24 8 24C8 24 8 26 8 26C8 26 8 24 8 24C8 24 6 24 6 24C6 24 6 22 6 22C6 22 8 22 8 22C8 22 8 20 8 20Z" fill="currentColor" opacity="0.7"/>
  <path d="M32 20C32 20 32 22 32 22C32 22 34 22 34 22C34 22 34 24 34 24C34 24 32 24 32 24C32 24 32 26 32 26C32 26 32 24 32 24C32 24 30 24 30 24C30 24 30 22 30 22C30 22 32 22 32 22C32 22 32 20 32 20Z" fill="currentColor" opacity="0.7"/>
  <path d="M12 30C12 30 12 32 12 32C12 32 14 32 14 32C14 32 14 34 14 34C14 34 12 34 12 34C12 34 12 36 12 36C12 36 12 34 12 34C12 34 10 34 10 34C10 34 10 32 10 32C10 32 12 32 12 32C12 32 12 30 12 30Z" fill="currentColor" opacity="0.7"/>
  <path d="M28 30C28 30 28 32 28 32C28 32 30 32 30 32C30 32 30 34 30 34C30 34 28 34 28 34C28 34 28 36 28 36C28 36 28 34 28 34C28 34 26 34 26 34C26 34 26 32 26 32C26 32 28 32 28 32C28 32 28 30 28 30Z" fill="currentColor" opacity="0.7"/>
</svg>
