<svg width="40" height="40" viewBox="0 0 40 40" fill="none" xmlns="http://www.w3.org/2000/svg">
  <!-- ต้นอ่อน -->
  <path d="M20 35C20 35 20 25 20 25C20 25 15 25 15 25C15 25 15 20 15 20C15 20 20 20 20 20C20 20 25 20 25 20C25 20 25 25 25 25C25 25 20 25 20 25C20 25 20 35 20 35Z" fill="currentColor" opacity="0.8"/>
  <!-- ใบ -->
  <path d="M15 20C15 20 15 15 15 15C15 15 10 15 10 15C10 15 10 10 10 10C10 10 15 10 15 10C15 10 20 10 20 10C20 10 20 15 20 15C20 15 15 15 15 15Z" fill="currentColor" opacity="0.7"/>
  <path d="M25 20C25 20 25 15 25 15C25 15 30 15 30 15C30 15 30 10 30 10C30 10 25 10 25 10C25 10 20 10 20 10C20 10 20 15 20 15C20 15 25 15 25 15Z" fill="currentColor" opacity="0.7"/>
  <!-- ใบเล็ก -->
  <path d="M20 10C20 10 20 5 20 5C20 5 15 5 15 5C15 5 15 0 15 0C15 0 20 0 20 0C20 0 25 0 25 0C25 0 25 5 25 5C25 5 20 5 20 5C20 5 20 10 20 10Z" fill="currentColor" opacity="0.6"/>
</svg>
