<svg width="40" height="40" viewBox="0 0 40 40" fill="none" xmlns="http://www.w3.org/2000/svg">
  <!-- ลมหายใจออก -->
  <path d="M35 20C35 20 25 25 20 25C15 25 5 20 5 20" stroke="currentColor" stroke-width="3" stroke-linecap="round" opacity="0.9"/>
  <path d="M30 15C30 15 22 18 20 18C18 18 10 15 10 15" stroke="currentColor" stroke-width="2" stroke-linecap="round" opacity="0.7"/>
  <path d="M25 25C25 25 22 28 20 28C18 28 15 25 15 25" stroke="currentColor" stroke-width="2" stroke-linecap="round" opacity="0.6"/>
  <!-- ลูกศร -->
  <path d="M5 20L2 18L2 22Z" fill="currentColor" opacity="0.8"/>
  <path d="M10 15L8 13L8 17Z" fill="currentColor" opacity="0.7"/>
  <path d="M15 25L13 23L13 27Z" fill="currentColor" opacity="0.6"/>
</svg>
