<svg width="40" height="40" viewBox="0 0 40 40" fill="none" xmlns="http://www.w3.org/2000/svg">
  <!-- ลมหายใจเข้า -->
  <path d="M5 20C5 20 15 15 20 15C25 15 35 20 35 20" stroke="currentColor" stroke-width="3" stroke-linecap="round" opacity="0.9"/>
  <path d="M10 25C10 25 18 22 20 22C22 22 30 25 30 25" stroke="currentColor" stroke-width="2" stroke-linecap="round" opacity="0.7"/>
  <path d="M15 15C15 15 18 12 20 12C22 12 25 15 25 15" stroke="currentColor" stroke-width="2" stroke-linecap="round" opacity="0.6"/>
  <!-- ลูกศร -->
  <path d="M35 20L38 18L38 22Z" fill="currentColor" opacity="0.8"/>
  <path d="M30 25L32 23L32 27Z" fill="currentColor" opacity="0.7"/>
  <path d="M25 15L27 13L27 17Z" fill="currentColor" opacity="0.6"/>
</svg>
